<?xml version='1.0' encoding='utf-8'?>
<svg xmlns="http://www.w3.org/2000/svg" viewBox="0 0 200 200"> <defs> <linearGradient id="b" x2="0" y1="394.58" y2="427.54" gradientUnits="userSpaceOnUse"> <stop stop-color="#fff" offset="0"/> <stop stop-color="#fff" stop-opacity="0" offset="1"/> </linearGradient> <linearGradient id="c" x1="171.04" x2="23.264" y1="175.77" y2="35.371" gradientUnits="userSpaceOnUse"> <stop stop-color="#f8f5da" offset="0"/> <stop stop-color="#fff" offset="1"/> </linearGradient> <radialGradient id="a" cx="124.36" cy="1082.2" r="54.578" fx="125.14" fy="1084" gradientTransform="scale(2.1759 .45958)" gradientUnits="userSpaceOnUse"> <stop stop-color="#fff" stop-opacity="0" offset="0"/> <stop stop-color="#fff" stop-opacity=".68041" offset="1"/> </radialGradient> </defs> <path d="m12.5 35 170-2.5c3.75 51.667-11.25 102.08 11.25 155h-167.5c-23.333-50.833-9.1667-101.67-13.75-152.5z" fill="url(#c)" stroke="#000" stroke-linecap="round" stroke-linejoin="bevel" stroke-width="2.5"/> <g transform="translate(-3.75,6.25)"> <path transform="matrix(.22888 -.1135 .1135 .22888 -68.5 -44.078)" d="m263.75 501.11-0.48883 125.61c8.0995 4.567 18.01 2.407 21.491-3.7031l-2.2525-120.66-18.75-1.25z" fill="#9e9d9b" fill-rule="evenodd"/> <path transform="matrix(.22888 -.1135 .1135 .22888 -68.5 -44.078)" d="m265.37 538.01 0.38478 89.573 8.0164 3.0371-3.0848-92.9-5.3165 0.29048z" fill="#fff" fill-rule="evenodd"/> <path d="m47.853 40.989c8.2224 15.824 6.6444 12.99 14.87 28.813 2.8918 1.0574 5.0847-0.8407 5.492-3.7154-8.0639-15.541-5.8372-11.707-13.897-27.25-1.8647 0.77399-4.6042 1.3683-6.4645 2.1527zm1.7403 0.63417 3.2715-1.3638c7.9004 15.244 5.8957 10.226 13.769 25.481 0.23748 2.2465-1.0804 3.1456-3.0052 3.1127-7.9363-15.301-6.0995-11.929-14.036-27.23z" fill-rule="evenodd"/> <path transform="matrix(.22888 -.1135 .1135 .22888 -68.5 -44.078)" d="m266.25 361.26c-50.37 0-91.25 17.083-91.25 38.133 0 4.1363 1.7452 8.0713 4.6875 11.786 1.7502 9.4932 3.8645 23.218 3.625 35.671-18.873 9.4744-30.406 21.995-30.406 35.741 0 29.532 53.023 53.49 118.34 53.49s118.34-23.957 118.34-53.49c0-14.783-13.445-28.021-34.969-37.647-2.9096-10.664-4.5987-22.125-2.75-32.69 3.5162-4.0185 5.625-8.3234 5.625-12.861 0-0.57625-0.15812-1.1286-0.21875-1.6986 0.07991-0.12533 0.13709-0.25677 0.21875-0.38132-0.05634-0.17498-0.22919-0.31705-0.3125-0.48532-3.186-19.844-42.648-35.567-90.938-35.567z" fill="#00f"/> <path transform="matrix(.25613 -.12701 .15351 .30958 -92.661 -79.76)" d="m336.25 417.36a77.5 23.75 0 1 1-155 0 77.5 23.75 0 1 1 155 0z" fill="url(#b)"/> <path transform="matrix(.22888 -.1135 .1135 .22888 -68.5 -44.078)" d="m348.54 411.26c-22.391 16.339-58.846 20.511-90.823 19.584-15.988-0.46343-31.161-2.6896-43.469-6.25s-23.526-6.4134-27.951-11.668l-1.9241 1.0117c5.5751 6.6204 15.722 11.639 28.531 15.344s28.332 5.9947 44.688 6.4688c32.711 0.94813 68.735-5.2456 92.594-22.656l-1.6459-1.8343z" fill-rule="evenodd"/> <path transform="matrix(.22888 -.1135 .1135 .22888 -68.5 -44.078)" d="m351.45 447.14c-19.336 16.919-52.867 28.086-84.295 28.395s-62.773-9.051-80.809-25.884l-1.1832 0.8372c19.464 18.167 49.732 30.27 82.054 29.953s64.674-13.358 85.338-31.439l-1.1055-1.8616z" fill-rule="evenodd"/> <path transform="matrix(.22888 -.1135 .1135 .22888 -68.5 -44.078)" d="m157.5 487.36c46.517 35.184 173.92 40.207 228.75-5-7.9182 63.229-200.88 72.479-228.75 5z" fill="url(#a)" fill-rule="evenodd"/> <path d="m33.318 7.9253c-6.1024 3.1189-12.112 7.1137-15.858 12.992-1.5501 2.4247-2.7247 7.5355 1.6403 8.6452 2.0037 1.0843 1.4418 2.8498 2.6951 4.6722 1.1443 1.7243 3.0709 2.8584 0.99652 4.5159-1.966 3.1841-3.7476 8.3424-1.326 11.637 2.8394 3.6569 7.8853 4.0299 12.209 3.9088 9.8356-0.51363 19.241-4.2028 27.514-9.3785 5.8291-3.8369 11.549-8.5174 14.603-14.946 1.5832-3.2151 1.6719-7.6483-1.2797-10.125-2.9839-2.5466-7.1193-2.9424-10.893-2.8588-1.6423-2.2043-4.8592-4.4976-4.514-7.4183 0.30643-2.1414-0.11966-4.1802-1.9024-5.1868-4.0673-2.1336-8.9275-1.32-13.218-0.40077-3.694 0.88983-7.2633 2.2605-10.666 3.9437zm0.55683 1.123c5.8795-2.8228 12.341-5.1159 18.952-4.6522 2.4237 0.19247 5.6657 1.3189 5.7709 4.1789-0.57006 1.7896 0.16699 3.4893 1.0545 5.0355 0.96527 1.6097 2.1805 2.9662 3.6086 4.1672 1.8732 0.21565 3.6972 0.33959 5.5752 0.82454 3.1472 0.49067 6.6165 2.5842 6.7937 6.09 0.14862 4.5898-2.9084 9.0026-5.8674 12.213-7.0365 7.1672-16.146 11.94-25.707 14.848-5.7728 1.5979-12.077 2.4106-17.918 0.49379-2.8312-0.86916-5.1341-3.6179-4.7407-6.68 0.21524-2.9218 1.874-5.4828 3.4412-7.8294-2.4e-4 -1.5831-1.3948-2.8931-2.0537-4.2919-0.97238-1.4556-1.7187-3.1603-2.8975-4.4489-2.401-0.83314-3.2315-3.5873-2.1979-5.7141 2.1983-4.9963 6.7205-8.469 11.163-11.404 1.6214-1.0333 3.3007-1.9753 5.0231-2.8296z"/> </g> </svg>